<svg version="1.1" xmlns="http://www.w3.org/2000/svg" viewBox="-399.4288252269819 -225.1984270026135 822.7032273771486 449.27902076047496" fill="none" stroke="black" stroke-width="0.6%" vector-effect="non-scaling-stroke">
    <path d="M -142.97975 -133.66245 L 196.58666 -117.74195 A 50 7.44545 180 0 0 258.25764 -122.16617 L 259.29461 -122.60768 L 419.96631 -198.59646 L 421.47226 -199.50418 A 50 7.44545 180 0 0 422.2744 -200.83248 A 50 7.44545 180 0 0 387.29045 -207.93424 L 47.72404 -223.85473 A 50 7.44545 180 0 0 -13.94694 -219.43051 L -14.98391 -218.989 L -175.65561 -143.00023 L -177.16156 -142.09251 A 50 7.44545 180 0 0 -177.9637 -140.7642 A 50 7.44545 180 0 0 -142.97975 -133.66245 Z" />
    <path d="M 258.25764 103.88514 L 258.25764 -122.16617" />
    <path d="M 207.57449 108.62886 A 50 7.44545 180 0 0 258.25764 103.88514 L 259.29461 103.44363 L 419.96631 27.45486 L 421.47226 26.54714 A 50 7.44545 180 0 0 422.2744 25.21883" />
    <path d="M 259.29461 103.44363 L 259.29461 -122.60768" />
    <path d="M 419.96631 27.45486 L 419.96631 -198.59646" />
    <path d="M 421.47226 26.54714 L 421.47226 -199.50418" />
    <path d="M -363.10591 209.06812 L -363.10591 -16.98319 L -289.3837 -13.52674 A 50 7.44545 180 0 0 -227.13563 -18.0291 L -226.33753 -18.37642 L -12.20871 -119.64744 L -10.96198 -120.35753 A 50 7.44545 180 0 0 -9.90062 -121.88347 L -9.90062 -95.94739" />
    <path d="M -289.3837 212.52457 L -289.3837 -13.52674" />
    <path d="M -363.10591 209.06812 L -289.3837 212.52457 A 50 7.44545 180 0 0 -227.13563 208.02222 L -226.33753 207.6749 L -180.95371 186.21087" />
    <path d="M -227.13563 208.02222 L -227.13563 -18.0291" />
    <path d="M -226.33753 207.6749 L -226.33753 -18.37642" />
    <path d="M -12.20871 -94.8558 L -12.20871 -119.64744" />
    <path d="M -10.96198 -95.44543 L -10.96198 -120.35753" />
    <path d="M -9.90062 -121.88347 A 50 7.44545 180 0 0 -45.22353 -129.00092 L -118.94575 -132.45736 A 50 7.44545 180 0 0 -181.19381 -127.95501 L -181.99191 -127.60769 L -396.12073 -26.33667 L -397.36747 -25.62657 A 50 7.44545 180 0 0 -398.42882 -24.10064 L -398.42882 201.95067 A 50 7.44545 180 0 0 -363.10591 209.06812" />
    <path d="M -398.42882 -24.10064 A 50 7.44545 180 0 0 -363.10591 -16.98319" />
    <path d="M -145.6308 219.26439 L -145.6308 -6.78692 L -71.90858 -3.33047 A 50 7.44545 180 0 0 -9.66052 -7.83283 L -8.86242 -8.18015 L 205.2664 -109.45117 L 206.51314 -110.16126 A 50 7.44545 180 0 0 207.57449 -111.68719 L 207.57449 114.36412" />
    <path d="M -71.90858 222.72084 L -71.90858 -3.33047" />
    <path d="M -145.6308 219.26439 L -71.90858 222.72084 A 50 7.44545 180 0 0 -9.66052 218.21849 L -8.86242 217.87117 L 205.2664 116.60015 L 206.51314 115.89005 A 50 7.44545 180 0 0 207.57449 114.36412" />
    <path d="M -9.66052 218.21849 L -9.66052 -7.83283" />
    <path d="M -8.86242 217.87117 L -8.86242 -8.18015" />
    <path d="M 205.2664 116.60015 L 205.2664 -109.45117" />
    <path d="M 206.51314 115.89005 L 206.51314 -110.16126" />
    <path d="M 207.57449 -111.68719 A 50 7.44545 180 0 0 172.25158 -118.80464 L 98.52936 -122.26109 A 50 7.44545 180 0 0 36.2813 -117.75874 L 35.4832 -117.41142 L -178.64562 -16.1404 L -179.89235 -15.4303 A 50 7.44545 180 0 0 -180.95371 -13.90437 L -180.95371 212.14694 A 50 7.44545 180 0 0 -145.6308 219.26439" />
    <path d="M -180.95371 -13.90437 A 50 7.44545 180 0 0 -145.6308 -6.78692" />
    <path d="M -142.97975 -132.70407 L -142.97975 -133.66245" />
    <path d="M 196.58666 -116.34415 L 196.58666 -117.74195" />
    <path d="M 422.2744 -200.83248 L 422.2744 25.21883" />
    <path d="M -177.9637 -140.7642 L -177.9637 -128.99931" />
</svg>