<svg version="1.1" xmlns="http://www.w3.org/2000/svg" viewBox="-218.30579110103145 -526.2948049324658 436.61158220206295 1065.787632046429" fill="none" stroke="black" stroke-width="0.6%" vector-effect="non-scaling-stroke">
    <path d="M 140.16223 -189.96283 L -77.14356 -124.14225 L -77.14356 -219.09562 L -140.16223 -398.07513 L -140.16223 -303.12177 L -77.14356 -124.14225" />
    <path d="M 140.16223 -284.9162 L -77.14356 -219.09562" />
    <path d="M 140.16223 -189.96283 L 140.16223 -284.9162 L 77.14356 -463.89571 L -140.16223 -398.07513" />
    <path d="M -179.36603 -147.95844 L -186.29273 -145.86038 L -186.26211 -146.94705 L -186.26211 -367.50801 L -186.3845 -370.1983 A 50 5.80256 73.14876 0 0 -216.27834 -459.44467 A 50 5.80256 73.14876 0 0 -217.27516 -456.76193 L -217.30579 -455.67526 L -217.30579 -235.1143 L -217.1834 -232.424 A 50 5.80256 73.14876 0 0 -187.28956 -143.17764 A 50 5.80256 73.14876 0 0 -186.29273 -145.86038" />
    <path d="M -179.41438 -149.02118 L -186.26211 -146.94705" />
    <path d="M -140.16223 -381.47138 L -186.26211 -367.50801" />
    <path d="M -140.16223 -384.19874 L -186.3845 -370.1983" />
    <path d="M 28.82496 -449.26031 A 50 5.80256 73.14876 0 0 1.02745 -525.26525" />
    <path d="M 217.27516 317.32254 L -0.03063 383.14312 L 0 382.05645 L 0 161.49549 L -0.12239 158.80519 A 50 5.80256 73.14876 0 0 -30.01623 69.55883 A 50 5.80256 73.14876 0 0 -31.01306 72.24157 L -31.04368 73.32824 L -31.04368 293.8892 L -30.92129 296.57949 A 50 5.80256 73.14876 0 0 -1.02745 385.82586 L 216.27834 320.00528 A 50 5.80256 73.14876 0 0 217.27516 317.32254 L 217.30579 316.23587 L 217.30579 95.67491 L 217.1834 92.98461 A 50 5.80256 73.14876 0 0 187.28956 3.73825" />
    <path d="M 217.30579 316.23587 L 0 382.05645" />
    <path d="M 217.30579 95.67491 L 0 161.49549" />
    <path d="M 217.1834 92.98461 L -0.12239 158.80519" />
    <path d="M -1.02745 385.82586 A 50 5.80256 73.14876 0 0 -0.03063 383.14312" />
    <path d="M -163.91065 -86.6442 L -53.39514 227.23121 A 50 5.80256 73.14876 0 0 -38.90075 256.39263 L -31.04368 254.01278" />
    <path d="M -31.04368 251.63197 L -37.90392 253.70989 L -37.87329 252.62323 L -37.87329 52.62303 L -37.99569 49.93274 A 50 5.80256 73.14876 0 0 -53.39514 -10.1522 L -163.91065 -324.02761 A 50 5.80256 73.14876 0 0 -178.40504 -353.18904 L -140.16223 -364.77255" />
    <path d="M -38.90075 256.39263 A 50 5.80256 73.14876 0 0 -37.90392 253.70989" />
    <path d="M -31.04368 250.55458 L -37.87329 252.62323" />
    <path d="M 179.4325 -13.19755 L -37.87329 52.62303" />
    <path d="M 179.4325 6.11811 L 179.4325 -13.19755 L 179.3101 -15.88784 A 50 5.80256 73.14876 0 0 163.91065 -75.97278 L -53.39514 -10.1522" />
    <path d="M 179.3101 -15.88784 L -37.99569 49.93274" />
    <path d="M 163.91065 -75.97278 L 125.35404 -185.47752" />
    <path d="M -178.40504 -353.18904 A 50 5.80256 73.14876 0 0 -179.40187 -350.5063 L -179.4325 -349.41963 L -179.4325 -149.41943 L -179.3101 -146.72914 A 50 5.80256 73.14876 0 0 -163.91065 -86.6442" />
    <path d="M -156.03954 239.82256 L -132.04585 307.96708 A 50 5.80256 73.14876 0 0 -117.44127 337.44194 L -100.89197 332.42926" />
    <path d="M -100.89197 329.83306 L -116.43268 334.54025 L -116.41382 333.67253 L -116.41382 67.13022 L -116.48923 65.07567 A 50 5.80256 73.14876 0 0 -132.04585 4.04249 L -156.03954 -64.10203 A 50 5.80256 73.14876 0 0 -170.64412 -93.5769 L -166.67056 -94.78046" />
    <path d="M -117.44127 337.44194 A 50 5.80256 73.14876 0 0 -116.43268 334.54025" />
    <path d="M -100.89197 328.97106 L -116.41382 333.67253" />
    <path d="M -110.40728 65.31087 L -116.41382 67.13022" />
    <path d="M -111.06824 63.43368 L -116.48923 65.07567" />
    <path d="M -131.98623 4.02443 L -132.04585 4.04249" />
    <path d="M -155.97992 -64.12009 L -156.03954 -64.10203" />
    <path d="M -170.64412 -93.5769 A 50 5.80256 73.14876 0 0 -171.65271 -90.6752 L -171.67157 -89.80749 L -171.67157 176.73483 L -171.59616 178.78938 A 50 5.80256 73.14876 0 0 -156.03954 239.82256" />
    <path d="M -85.25994 440.84389 L -61.26625 508.98841 A 50 5.80256 73.14876 0 0 -46.66167 538.46327 L 170.64412 472.64269 A 50 5.80256 73.14876 0 0 171.65271 469.741 L 171.67157 468.87328 L 171.67157 333.51639" />
    <path d="M 171.65271 469.741 L -45.65308 535.56158 L -45.63422 534.69386 L -45.63422 268.15154 L -45.70963 266.097 A 50 5.80256 73.14876 0 0 -61.26625 205.06382 L -85.25994 136.9193 A 50 5.80256 73.14876 0 0 -99.86452 107.44443 L -95.98572 106.26957" />
    <path d="M -46.66167 538.46327 A 50 5.80256 73.14876 0 0 -45.65308 535.56158" />
    <path d="M 171.67157 468.87328 L -45.63422 534.69386" />
    <path d="M -31.04368 263.73216 L -45.63422 268.15154" />
    <path d="M -31.04368 261.65477 L -45.70963 266.097" />
    <path d="M -61.20663 205.04576 L -61.26625 205.06382" />
    <path d="M -85.20032 136.90124 L -85.25994 136.9193" />
    <path d="M -99.86452 107.44443 A 50 5.80256 73.14876 0 0 -100.87311 110.34613 L -100.89197 111.21384 L -100.89197 377.75616 L -100.81656 379.81071 A 50 5.80256 73.14876 0 0 -85.25994 440.84389" />
    <path d="M -140.16223 -331.22086 L -163.91065 -324.02761" />
    <path d="M -216.27834 -459.44467 L 1.02745 -525.26525" />
    <path d="M -187.28956 -143.17764 L -179.2091 -145.62516" />
    <path d="M -30.01623 69.55883 L 187.28956 3.73825" />
</svg>