<svg version="1.1" xmlns="http://www.w3.org/2000/svg" viewBox="-482.1489195770439 -222.65949810530574 1088.6005346227912 438.66134131151176" fill="none" stroke="black" stroke-width="0.6%" vector-effect="non-scaling-stroke">
    <path d="M -184.88129 -124.97998 L -184.88129 -140.2124 L -183.42632 -140.60416 L 60.25207 -211.56108 L 62.62396 -212.37926 A 50 7.03654 180 0 0 65.23393 -214.62296 A 50 7.03654 180 0 0 -28.32925 -218.0766 L -29.78421 -217.68484 L -273.46261 -146.72792 L -275.8345 -145.90974 A 50 7.03654 180 0 0 -278.44446 -143.66604 A 50 7.03654 180 0 0 -184.88129 -140.2124" />
    <path d="M -183.42632 -125.40365 L -183.42632 -140.60416" />
    <path d="M 60.25207 -204.44595 L 60.25207 -211.56108" />
    <path d="M 62.62396 -205.13662 L 62.62396 -212.37926" />
    <path d="M 355.3364 122.85511 L 355.3364 -103.46984 L 356.79136 -103.8616 L 600.46975 -174.81852 L 602.84165 -175.6367 A 50 7.03654 180 0 0 605.45161 -177.8804 A 50 7.03654 180 0 0 511.88844 -181.33404 L 510.43347 -180.94228 L 266.75508 -109.98536 L 264.38319 -109.16718 A 50 7.03654 180 0 0 261.77322 -106.92348 A 50 7.03654 180 0 0 355.3364 -103.46984" />
    <path d="M 356.79136 122.46335 L 356.79136 -103.8616" />
    <path d="M 355.3364 122.85511 L 356.79136 122.46335 L 600.46975 51.50643 L 602.84165 50.68825 A 50 7.03654 180 0 0 605.45161 48.44455" />
    <path d="M 600.46975 51.50643 L 600.46975 -174.81852" />
    <path d="M 602.84165 50.68825 L 602.84165 -175.6367" />
    <path d="M 261.77322 119.40147 A 50 7.03654 180 0 0 355.3364 122.85511" />
    <path d="M -121.42861 -135.37145 L 199.10055 -113.57086 A 50 7.03654 180 0 0 264.42072 -116.45266 L 265.87569 -116.84442 L 498.67558 -184.63362 L 501.04747 -185.4518 A 50 7.03654 180 0 0 503.65744 -187.6955 L 503.65744 -178.96916" />
    <path d="M 264.42072 -109.18012 L 264.42072 -116.45266" />
    <path d="M 204.61691 113.07366 A 50 7.03654 180 0 0 261.77322 110.46306" />
    <path d="M 265.87569 -109.68201 L 265.87569 -116.84442" />
    <path d="M 498.67558 -177.51849 L 498.67558 -184.63362" />
    <path d="M 501.04747 -178.20916 L 501.04747 -185.4518" />
    <path d="M 503.65744 -187.6955 A 50 7.03654 180 0 0 475.41444 -194.03094 L 154.88528 -215.83152 A 50 7.03654 180 0 0 89.5651 -212.94973 L 88.11014 -212.55796 L -144.68975 -144.76877 L -147.06165 -143.95058 A 50 7.03654 180 0 0 -149.67161 -141.70689 L -149.67161 -133.19596" />
    <path d="M -149.67161 -141.70689 A 50 7.03654 180 0 0 -121.42861 -135.37145" />
    <path d="M -452.58577 195.58361 L -452.58577 -30.74134 L -382.99667 -26.00828 A 50 7.03654 180 0 0 -317.02958 -28.95139 L -315.90248 -29.25994 L -5.64767 -119.6033 L -3.72424 -120.24196 A 50 7.03654 180 0 0 -0.66581 -122.66518 L -0.66581 -104.88322" />
    <path d="M -382.99667 200.31667 L -382.99667 -26.00828" />
    <path d="M -452.58577 195.58361 L -382.99667 200.31667 A 50 7.03654 180 0 0 -317.02958 197.37356 L -315.90248 197.06501 L -275.8662 185.40681" />
    <path d="M -317.02958 197.37356 L -317.02958 -28.95139" />
    <path d="M -315.90248 197.06501 L -315.90248 -29.25994" />
    <path d="M -5.64767 -103.43255 L -5.64767 -119.6033" />
    <path d="M -3.72424 -103.99263 L -3.72424 -120.24196" />
    <path d="M -0.66581 -122.66518 A 50 7.03654 180 0 0 -29.22896 -129.0222 L -98.81806 -133.75525 A 50 7.03654 180 0 0 -164.78515 -130.81214 L -165.91225 -130.50359 L -476.16706 -40.16023 L -478.09049 -39.52158 A 50 7.03654 180 0 0 -481.14892 -37.09835 L -481.14892 189.2266 A 50 7.03654 180 0 0 -452.58577 195.58361" />
    <path d="M -481.14892 -37.09835 A 50 7.03654 180 0 0 -452.58577 -30.74134" />
    <path d="M -247.30305 209.54579 L -247.30305 -16.77916 L -177.71395 -12.04611 A 50 7.03654 180 0 0 -111.74686 -14.98922 L -110.61976 -15.29777 L 199.63505 -105.64113 L 201.55848 -106.27978 A 50 7.03654 180 0 0 204.61691 -108.70301 L 204.61691 117.62194" />
    <path d="M -177.71395 214.27884 L -177.71395 -12.04611" />
    <path d="M -247.30305 209.54579 L -177.71395 214.27884 A 50 7.03654 180 0 0 -111.74686 211.33573 L -110.61976 211.02718 L 199.63505 120.68382 L 201.55848 120.04517 A 50 7.03654 180 0 0 204.61691 117.62194" />
    <path d="M -111.74686 211.33573 L -111.74686 -14.98922" />
    <path d="M -110.61976 211.02718 L -110.61976 -15.29777" />
    <path d="M 199.63505 120.68382 L 199.63505 -105.64113" />
    <path d="M 201.55848 120.04517 L 201.55848 -106.27978" />
    <path d="M 204.61691 -108.70301 A 50 7.03654 180 0 0 176.05376 -115.06002 L 106.46466 -119.79308 A 50 7.03654 180 0 0 40.49757 -116.84997 L 39.37047 -116.54142 L -270.88434 -26.19806 L -272.80777 -25.5594 A 50 7.03654 180 0 0 -275.8662 -23.13618 L -275.8662 203.18877 A 50 7.03654 180 0 0 -247.30305 209.54579" />
    <path d="M -275.8662 -23.13618 A 50 7.03654 180 0 0 -247.30305 -16.77916" />
    <path d="M -121.42861 -134.47785 L -121.42861 -135.37145" />
    <path d="M 199.10055 -111.91588 L 199.10055 -113.57086" />
    <path d="M 65.23393 -214.62296 L 65.23393 -205.89662" />
    <path d="M -278.44446 -143.66604 L -278.44446 -97.73524" />
    <path d="M 605.45161 -177.8804 L 605.45161 48.44455" />
    <path d="M 261.77322 -106.92348 L 261.77322 119.40147" />
</svg>