<svg version="1.1" xmlns="http://www.w3.org/2000/svg" viewBox="-218.33119529572164 -526.3077921817929 436.66239059144334 1065.8339430118112" fill="none" stroke="black" stroke-width="0.6%" vector-effect="non-scaling-stroke">
    <path d="M -124.64154 -259.05227 L -92.65818 -168.244 A 50 5.80466 73.14442 0 0 -78.16016 -139.08553 A 50 5.80466 73.14442 0 0 -77.16291 -141.76899 L -77.13228 -142.85578 L -77.13228 -200.43164 L -77.2547 -203.12215 A 50 5.80466 73.14442 0 0 -92.65818 -263.20678 L -124.64154 -354.01505 A 50 5.80466 73.14442 0 0 -139.13956 -383.17352 A 50 5.80466 73.14442 0 0 -140.13681 -380.49006 L -140.16745 -379.40327 L -140.16745 -321.82742 L -140.04502 -319.13691 A 50 5.80466 73.14442 0 0 -124.64154 -259.05227 Z" />
    <path d="M 140.13681 -207.60574 L -77.16291 -141.76899" />
    <path d="M 139.13956 -204.92228 A 50 5.80466 73.14442 0 0 140.13681 -207.60574 L 140.16745 -208.69252 L 140.16745 -266.26838 L 140.04502 -268.95889 A 50 5.80466 73.14442 0 0 124.64154 -329.04353 L 92.65818 -419.8518 A 50 5.80466 73.14442 0 0 78.16016 -449.01027" />
    <path d="M 140.16745 -208.69252 L -77.13228 -142.85578" />
    <path d="M 140.16745 -266.26838 L -77.13228 -200.43164" />
    <path d="M 140.04502 -268.95889 L -77.2547 -203.12215" />
    <path d="M -179.38142 -147.93742 L -186.31002 -145.83821 L -186.27938 -146.925 L -186.27938 -367.50784 L -186.40181 -370.19835 A 50 5.80466 73.14442 0 0 -216.30331 -459.44145 A 50 5.80466 73.14442 0 0 -217.30056 -456.75799 L -217.33119 -455.6712 L -217.33119 -235.08837 L -217.20877 -232.39786 A 50 5.80466 73.14442 0 0 -187.30727 -143.15475 A 50 5.80466 73.14442 0 0 -186.31002 -145.83821" />
    <path d="M -179.42978 -149.00027 L -186.27938 -146.925" />
    <path d="M -140.0256 -381.52165 L -186.27938 -367.50784" />
    <path d="M 30.89791 -436.03509 L -186.40181 -370.19835" />
    <path d="M 30.95824 -434.70919 L 30.89791 -436.03509 A 50 5.80466 73.14442 0 0 0.99641 -525.2782" />
    <path d="M 217.30056 317.30525 L 0.00083 383.14199 L 0.03147 382.05521 L 0.03147 161.47237 L -0.09096 158.78186 A 50 5.80466 73.14442 0 0 -29.99245 69.53876 L 187.30727 3.70201" />
    <path d="M 217.33119 316.21846 L 0.03147 382.05521" />
    <path d="M 217.30056 317.30525 L 217.33119 316.21846 L 217.33119 95.63563 L 217.20877 92.94512 A 50 5.80466 73.14442 0 0 187.30727 3.70201" />
    <path d="M 217.33119 95.63563 L 0.03147 161.47237" />
    <path d="M 217.20877 92.94512 L -0.09096 158.78186" />
    <path d="M -29.99245 69.53876 A 50 5.80466 73.14442 0 0 -30.9897 72.22222 L -31.02034 73.309 L -31.02034 293.89184 L -30.89791 296.58235 A 50 5.80466 73.14442 0 0 -0.99641 385.82546 L 216.30331 319.98871 A 50 5.80466 73.14442 0 0 217.30056 317.30525" />
    <path d="M -0.99641 385.82546 A 50 5.80466 73.14442 0 0 0.00083 383.14199" />
    <path d="M -163.92208 -86.62527 L -53.37764 227.23633 A 50 5.80466 73.14442 0 0 -38.87962 256.3948 L -31.02034 254.01362" />
    <path d="M -31.02034 251.6323 L -37.88237 253.71134 L -37.85174 252.62455 L -37.85174 52.60452 L -37.97416 49.91401 A 50 5.80466 73.14442 0 0 -53.37764 -10.17062 L -163.92208 -324.03221 A 50 5.80466 73.14442 0 0 -178.4201 -353.19069 L -140.16745 -364.78035" />
    <path d="M -38.87962 256.3948 A 50 5.80466 73.14442 0 0 -37.88237 253.71134" />
    <path d="M -31.02034 250.55479 L -37.85174 252.62455" />
    <path d="M 179.44799 -13.23223 L -37.85174 52.60452" />
    <path d="M 179.44799 6.08319 L 179.44799 -13.23223 L 179.32556 -15.92274 A 50 5.80466 73.14442 0 0 163.92208 -76.00737 L -53.37764 -10.17062" />
    <path d="M 179.32556 -15.92274 L -37.97416 49.91401" />
    <path d="M 163.92208 -76.00737 L 120.5057 -199.27665" />
    <path d="M -178.4201 -353.19069 A 50 5.80466 73.14442 0 0 -179.41735 -350.50722 L -179.44799 -349.42044 L -179.44799 -149.40041 L -179.32556 -146.7099 A 50 5.80466 73.14442 0 0 -163.92208 -86.62527" />
    <path d="M -156.04891 239.87066 L -132.04894 308.01218 A 50 5.80466 73.14442 0 0 -117.4407 337.48408 L -100.88691 332.46867" />
    <path d="M -100.88691 329.87193 L -116.43169 334.58164 L -116.41281 333.71383 L -116.41281 67.14508 L -116.48825 65.09036 A 50 5.80466 73.14442 0 0 -132.04894 4.05746 L -156.04891 -64.08406 A 50 5.80466 73.14442 0 0 -170.65715 -93.55596 L -166.68239 -94.76022" />
    <path d="M -117.4407 337.48408 A 50 5.80466 73.14442 0 0 -116.43169 334.58164" />
    <path d="M -100.88691 329.00984 L -116.41281 333.71383" />
    <path d="M -110.40418 65.32461 L -116.41281 67.14508" />
    <path d="M -111.06536 63.44735 L -116.48825 65.09036" />
    <path d="M -131.9893 4.03939 L -132.04894 4.05746" />
    <path d="M -155.98926 -64.10213 L -156.04891 -64.08406" />
    <path d="M -170.65715 -93.55596 A 50 5.80466 73.14442 0 0 -171.66616 -90.65352 L -171.68503 -89.78571 L -171.68503 176.78304 L -171.6096 178.83776 A 50 5.80466 73.14442 0 0 -156.04891 239.87066" />
    <path d="M -85.25078 440.88314 L -61.25082 509.02466 A 50 5.80466 73.14442 0 0 -46.64257 538.49656 L 170.65715 472.65981 A 50 5.80466 73.14442 0 0 171.66616 469.75737 L 171.68503 468.88956 L 171.68503 333.507" />
    <path d="M 171.66616 469.75737 L -45.63356 535.59412 L -45.61469 534.72631 L -45.61469 268.15756 L -45.69013 266.10284 A 50 5.80466 73.14442 0 0 -61.25082 205.06994 L -85.25078 136.92841 A 50 5.80466 73.14442 0 0 -99.85902 107.45652 L -95.97904 106.28097" />
    <path d="M -46.64257 538.49656 A 50 5.80466 73.14442 0 0 -45.63356 535.59412" />
    <path d="M 171.68503 468.88956 L -45.61469 534.72631" />
    <path d="M -31.02034 263.73581 L -45.61469 268.15756" />
    <path d="M -31.02034 261.65824 L -45.69013 266.10284" />
    <path d="M -61.19118 205.05187 L -61.25082 205.06994" />
    <path d="M -85.19114 136.91034 L -85.25078 136.92841" />
    <path d="M -99.85902 107.45652 A 50 5.80466 73.14442 0 0 -100.86804 110.35896 L -100.88691 111.22677 L -100.88691 377.79551 L -100.81147 379.85024 A 50 5.80466 73.14442 0 0 -85.25078 440.88314" />
    <path d="M 124.64154 -329.04353 L -92.65818 -263.20678" />
    <path d="M 92.65818 -419.8518 L -124.64154 -354.01505" />
    <path d="M -140.16745 -331.22931 L -163.92208 -324.03221" />
    <path d="M -78.16016 -139.08553 L 139.13956 -204.92228" />
    <path d="M -139.13956 -383.17352 L 78.16016 -449.01027" />
    <path d="M -216.30331 -459.44145 L 0.99641 -525.2782" />
    <path d="M -187.30727 -143.15475 L -179.22431 -145.6037" />
</svg>