<svg version="1.1" xmlns="http://www.w3.org/2000/svg" viewBox="-218.30579110103164 -541.1874497700468 436.61158220206323 1095.5729217215908" fill="none" stroke="black" stroke-width="0.6%" vector-effect="non-scaling-stroke">
    <path d="M 140.16223 -189.96283 L -77.14356 -124.14225 L -77.14356 -219.09562 L -140.16223 -398.07513 L -140.16223 -303.12177 L -77.14356 -124.14225" />
    <path d="M 140.16223 -284.9162 L -77.14356 -219.09562" />
    <path d="M 140.16223 -189.96283 L 140.16223 -284.9162 L 77.14356 -463.89571 L -140.16223 -398.07513" />
    <path d="M -179.30404 -130.36299 L -186.26211 -128.25544 L -186.26211 -386.19962 L -217.30579 -474.36687 L -217.30579 -216.42269 L -186.26211 -128.25544" />
    <path d="M 31.04368 -452.0202 L -186.26211 -386.19962" />
    <path d="M 31.04368 -449.93235 L 31.04368 -452.0202 L 0 -540.18745 L -217.30579 -474.36687" />
    <path d="M 217.30579 334.92748 L 0 400.74806 L 0 142.80388 L -31.04368 54.63663 L -31.04368 312.58081 L 0 400.74806" />
    <path d="M 217.30579 76.9833 L 0 142.80388" />
    <path d="M 217.30579 334.92748 L 217.30579 76.9833 L 186.26211 -11.18395 L -31.04368 54.63663" />
    <path d="M -31.04368 269.24619 L -37.87329 271.31483 L -37.87329 33.93142 L -179.4325 -368.11124 L -179.4325 -130.72782 L -37.87329 271.31483" />
    <path d="M 179.4325 -31.88916 L -37.87329 33.93142" />
    <path d="M 179.4325 -9.1153 L 179.4325 -31.88916 L 125.35404 -185.47752" />
    <path d="M -140.16223 -380.00596 L -179.4325 -368.11124" />
    <path d="M -100.89197 347.66267 L -116.41382 352.36414 L -116.41382 48.43861 L -171.67157 -108.4991 L -171.67157 195.42644 L -116.41382 352.36414" />
    <path d="M -116.35435 48.42059 L -116.41382 48.43861" />
    <path d="M -171.6121 -108.51711 L -171.67157 -108.4991" />
    <path d="M 171.67157 487.56489 L -45.63422 553.38547 L -45.63422 249.45994 L -100.89197 92.52223 L -100.89197 396.44777 L -45.63422 553.38547" />
    <path d="M -45.57475 249.44192 L -45.63422 249.45994" />
    <path d="M 171.67157 487.56489 L 171.67157 348.7498" />
    <path d="M -100.8325 92.50422 L -100.89197 92.52223" />
</svg>